<?xml version="1.0" encoding="utf-8"?>
<!-- Generator: Adobe Illustrator 19.1.0, SVG Export Plug-In . SVG Version: 6.00 Build 0)  -->
<svg version="1.1" id="Layer_1" xmlns="http://www.w3.org/2000/svg" xmlns:xlink="http://www.w3.org/1999/xlink" x="0px" y="0px"
	 viewBox="0 0 157 45.5" style="enable-background:new 0 0 157 45.5;" xml:space="preserve">
<style type="text/css">
	.st0{fill:#66A986;}
</style>
<g>
	<g>
		<path class="st0" d="M103.7,21.8c-21,8.2-21.7,8.1-42.9,16c-11.7,4.4-23.7,6.9-36.3,5c-6.7-1-12.6-3.4-17.5-8.3
			c-8.5-8.5-6-20.1,5.3-23.9c7.3-2.4,14.1-0.6,20.5,3.1c2.9,1.7,3.1,4.3,0.7,6.8c-3.5,3.6-8,5.3-13.2,5.3c-0.2-1.2-0.3-2.2-0.4-3.2
			c-0.4-3.3-1.5-6.1-5.3-6.6S7.2,17.6,6,21.2c-1.2,3.6-0.6,7.2,2.7,8.8c3.5,1.7,7.6,2.7,11.5,2.8c10.8,0.2,21-2.9,31-6.6
			c22.4-8.3,24.4-8.7,46.7-17.1l4.9-1.6c10.5-2.8,21.2-5.1,32.4-4.2c5.7,0.5,11.2,1.8,15.6,5.8c7.6,7,5.2,19.5-4.5,23.1
			c-7.7,2.9-14.9,1-21.5-3.1c-2.8-1.7-2.8-4.4-0.3-6.8c3.6-3.3,7.8-5,12.9-5.1c0.2,1.6,0.3,3,0.6,4.4c0.7,3.4,2.6,5.6,6.3,5.5
			c4.2-0.1,6.8-2.5,7.3-6.6c0.6-4.3-0.7-7-4.3-8c-1.8-0.5-3.8-1-5.6-0.6c-10.2,2-20.4,4.3-31.6,6.7L103.7,21.8z"/>
	</g>
</g>
</svg>
