<?xml version="1.0" encoding="utf-8"?>
<!-- Generator: Adobe Illustrator 19.1.0, SVG Export Plug-In . SVG Version: 6.00 Build 0)  -->
<svg version="1.1" id="Layer_1" xmlns="http://www.w3.org/2000/svg" xmlns:xlink="http://www.w3.org/1999/xlink" x="0px" y="0px"
	 viewBox="-208 46.8 692 593.3" style="enable-background:new -208 46.8 692 593.3;" xml:space="preserve">
<style type="text/css">
	.st0{fill:#FFFFFF;}
	.st1{fill:#66CB95;}
	.st2{enable-background:new    ;}
	.st3{fill:#FFFFFF;stroke:#FFFFFF;stroke-width:3;stroke-linecap:round;stroke-linejoin:round;stroke-miterlimit:10;}
</style>
<g id="IMG_x5F_0003__x2B__GOPR2196__x2B__Photo_Filter_1__x2B__Black__x26__White_1__x2B__Curves_1__x2B__Black__x26__White_2_xA0_Image_1_">
	<g>
		<g>
			<path class="st0" d="M153.3,289.3c-0.4,2.2-0.4,4.5-1.3,6.4c-6.8,14.4-3.2,7.8-10.6,21.9c-2.2,4.1-6.3,7.7-10.3,10.4
				c-8,5.3-16.2,2.5-19.7-6.4c-1.5-3.8-2.2-7.9-3.2-12.1c-3,3.8-5.8,8-9.2,11.7c-12.8,13.9-28,10.5-33.6-7.6
				c-1.6-5.2-2.1-10.8-3.3-16.9c-1.3,1.8-2.5,3.4-3.6,5.1c-7.5,10.9-16.1,20.5-28.6,25.9c-16.2,6.9-30,1-36-15.6
				c-1.6-4.4-2.5-9-3.8-14c-3.5,6.2-6.4,12.2-10.2,17.6c-3.2,4.6-6.9,9.3-11.4,12.5c-8.5,6.2-17.4,3.3-20.6-6.7
				c-2-6-2.3-12.6-3.3-18.9c-3.2,5.1-6.2,10.7-10,15.9c-2.6,3.6-5.8,7.1-9.4,9.7c-8.7,6-17.7,2.7-21.3-7.3
				c-3.3-9.3-2.6-18.7-0.5-28.1c2.9-13.1,6.2-26.1,9.2-39.1c0.5-2.2,0.4-4.5,0.6-6.8c-0.5-0.3-1-0.6-1.5-0.9
				c-1.8,1.8-3.8,3.4-5.2,5.5c-15,21.5-25.4,45.3-33.5,70.2c-3.1,9.6-3.7,10.5-11.4,9.5c-6.6-0.9-10.6-5.2-9.6-13.1
				c1.3-10.5,4.1-20.9,6.3-31.3c2.3-11,4.8-22,7-33c0.4-2.2,0.1-4.5-1.3-7.7c-1.9,2-4,3.7-5.5,6c-15.2,22.1-25.8,46.5-34,71.9
				c-1.2,3.8-1.7,7.6-7.3,7.4c-5.6-0.2-10.6-1.1-12-7.2c-0.9-4.1-1.3-8.7-0.5-12.8c5-25.3,10.4-50.6,15.7-75.9
				c0.2-0.7,0.5-1.4,0.9-2.6c3.2,0.3,6.3,0.4,9.3,1c8.7,1.9,11.7,6.7,9.6,15.6c-3.6,15.1-7.3,30.2-10.3,45.6
				c4.1-8.3,7.9-16.9,12.5-24.9c5.6-9.7,11.8-19.1,18.2-28.3c2.3-3.3,5.8-6,9.2-8.2c8-5.2,14.5-2.6,14.9,6.8
				c0.5,9.9-0.6,20-1.8,29.9c-1,7.6-3.3,14.9-4.4,22.7c2.1-4.4,4-9,6.4-13.2c6.6-11.6,13.1-23.4,20.5-34.5
				c3.3-4.9,8.3-9.1,13.3-12.4c6.5-4.5,13-1.9,13.4,5.8c0.5,11.3-0.2,22.8-1.8,34c-1.9,13.2-5.3,26.3-7.7,39.4
				c-0.6,3.1,0.2,6.4,0.4,9.6c0.7,0.3,1.5,0.7,2.2,1c2.4-2.7,5.3-5.2,7.2-8.3c12.2-19.4,20.5-40.4,24.8-62.9
				c1.2-6.2,2.6-12.3,4.2-20.1c5.8,2.2,11.3,3.8,16.5,6.3c3.9,1.9,4.1,5.6,3,9.8c-4.7,18.3-9.5,36.6-13.7,55.1
				c-1.4,6.1-3.2,12.7,0.5,20.3c2.4-2.2,4.8-3.5,6.1-5.6c8.2-12.6,15.4-25.6,18.9-40.4c3.9-16.5,10.7-31.5,25.7-41
				c7.8-4.9,16.3-6.8,25.5-4.9c14,2.9,21.1,14,17.1,27.8c-2.7,9.5-8.9,16.7-17.1,22c-4.5,2.9-8,1.4-9.4-3.9
				c-1.6-6.3-0.9-12.5,2.6-18.3c1.4,0.5,2.7,0.9,4,1.4c5.5,1.8,10.3,0.9,13.6-4c3.2-4.7,2.4-9.5-1-13.7c-3.5-4.3-8.2-6.5-13.7-4
				c-3.2,1.4-6.6,3.3-8.7,5.9C16.6,263,9.5,284,13.8,307.8c2.5,13.7,11,17.4,22.9,9.9c14.5-9.1,23.3-22.9,28.1-39
				c3.6-12.4,7.6-24.5,16.6-34.2c11.7-12.5,25.2-15.1,41-7.8c0.4-0.8,1-1.5,1.2-2.3c2.3-7.7,3.3-8.3,11-6.1c2.4,0.7,4.8,1.7,7.1,2.9
				c3.9,2.1,5.4,5,4.1,9.8c-5.6,21.3-10.8,42.8-16.1,64.2c-0.5,2.1-0.9,4.4-0.5,6.4c0.5,2.3,2,4.4,3,6.6c2.1-1.2,4.6-1.9,6.2-3.6
				c2.1-2.3,3.7-5.1,5-8c4.6-9.6-1.3,1.8,3.2-7.8c1.5-3.3,3.2-6.5,4.8-9.7C152.2,288.8,152.8,289,153.3,289.3z M83.8,301.6
				c0.2,3.4-0.2,6.6,0.8,9.2c1.3,3.2,3.2,7.5,5.8,8.5c2,0.7,6.7-2.3,8.3-4.9c3.9-6.3,7.7-12.9,9.8-20c4.7-15.9,8-32.1,12.4-48.1
				c1.4-5.2-0.7-7.3-5-7.4c-3.3-0.1-7.3,0.6-9.8,2.4c-3.5,2.6-6.5,6.4-8.6,10.3C89,267.4,84.8,284.3,83.8,301.6z"/>
			<path class="st0" d="M-21.1,194.1c8.7-0.1,16.2,5.6,16.1,12.3c-0.1,7-8,12.5-17,11.8c-8.9-0.8-14.9-5.9-14.7-12.4
				C-36.5,199.5-29.5,194.2-21.1,194.1z"/>
		</g>
		<g>
			<path class="st1" d="M177.5,256.7c-0.8,0.1-1.7,0.3-2.5,0.2c-3.8-0.4-6.9,1-9.3,3.8c-2.8,3.3-4.7,7.1-5.2,11.4
				c-0.5,4.4,1.8,7.1,6.2,7.5c4.9,0.5,8.8-1.2,11.8-5.1c2.7-3.6,4.3-7.7,5.9-12.4c-3.1,0.5-5.9,0.7-8.6,1.3c-2.1,0.5-3.5,2-3.6,4.3
				c-0.1,2.3,0.9,4.1,2.9,5.3c0.7,0.4,1.4,0.7,2.4,1.3c-3.5-0.1-7.3-2.9-8.1-5.7c-0.8-2.6,0.7-5.6,3.7-7.6c4.2-2.7,9-3.1,13.8-3.2
				c2.8,0,5.7,0.3,8.5,0.5c1.7,0.2,2.1,0.9,1.8,3.2c-0.2,1.5-0.9,2.2-2.5,2c-2.2-0.3-4.4-0.5-6.5-0.8c-1.3-0.2-1.8,0.1-2.3,1.4
				c-1.7,5-4.1,9.7-8.1,13.3c-4.7,4.4-10.3,5.6-16.5,4.2s-8.9-7.3-6.7-14c2.3-6.8,7.4-10.2,14.1-11.9c0.5-0.1,0.9-0.2,1.6-0.3
				c-1-0.7-1.8-1.2-2.6-1.8c-3.1-2.5-4.2-6-3.2-9.8c2.3-8.1,10.6-12.7,18.5-10.2c5.4,1.7,7.2,5.1,5.5,10.5c-0.9,2.9-2.6,5.2-5.1,6.8
				c-2,1.3-3.2,0.8-3.6-1.6c-0.4-2.5,0.3-4.8,1.5-7c0.6,0.2,1,0.4,1.5,0.6c1.5,0.5,2.9,0.4,4-1c1-1.3,0.8-3.1-0.3-4.4
				c-1.8-2.2-5-3.1-7.9-2.1c-3.8,1.3-5.9,4.2-7.3,7.7c-1,2.6-1.7,5.2-1.2,8c0.4,2.4,2.1,3.9,4.5,4.2c1,0.1,1.9,0.3,2.8,0.5
				C177.5,256.4,177.5,256.6,177.5,256.7z"/>
		</g>
		<g>
			<path class="st0" d="M364.1,234.1c4.8-20.4,9.7-40.7,14.2-61c1-4.4,2.8-5.8,6.8-4.7c3,0.8,6.2,1.4,9,2.7
				c6.2,2.8,7.1,5.5,5.5,12.2c-9.6,40.1-19.1,80.1-28.6,120.2c-1,4.3-2.5,10.1,2.6,11.9c1.9,0.7,6.9-4.2,8.9-7.5
				c6.4-10.4,11.5-21.3,13.9-33.6c2.5-12.9,8-24.8,17.6-34.2c8.7-8.5,18.9-12.6,31.2-11.2c15.8,1.8,21.6,11.6,15.4,26.3
				c-4.9,11.6-13,20.7-22.8,28.3c-5.7,4.4-12.3,7.8-18.2,12c-1.6,1.2-3.4,4-3.1,5.7c1,7.2,3.2,14.1,11,16.9
				c7.3,2.6,13.2-0.7,18.3-5.3c10.9-9.7,16.8-22.7,22.7-35.7c1.7-3.8,3.6-7.6,5.5-11.4c0.5,0.2,1.1,0.4,1.6,0.5
				c-0.3,1.9-0.4,4-1,5.8c-5,15.1-12,29.2-22.6,41.2c-3.2,3.7-7.1,7-11.1,9.6c-19.3,12.6-40.4,3.5-45.7-19.6
				c-0.4-1.8-0.7-3.7-1.3-6.5c-4.1,6.9-7.2,13.2-11.2,18.7c-3.2,4.3-7.2,8.5-11.8,11.3c-7,4.3-14.3,1.6-17.7-5.9
				c-1.9-4-2.7-8.6-4.1-13.2c-1.2,1.5-2.4,3.4-3.8,5c-3.3,3.7-6.2,7.8-10,10.8c-9.5,7.6-20.9,5.4-26.2-5.6c-3.1-6.6-4.4-14-6.5-21
				c-2.5,3.6-4.9,7.9-8,11.6c-4,4.6-8.1,9.3-12.9,12.9c-19.8,14.8-43.4,6-47.7-18.4c-4.2-23.7,2.5-45,18.8-62.8
				c8.2-8.9,18.9-12.6,31.1-11.2c15.8,1.8,21.6,11.6,15.4,26.2c-4.9,11.6-13,20.7-22.8,28.3c-5.7,4.4-12.3,7.8-18.2,12
				c-1.6,1.2-3.4,4-3.1,5.7c1,7.2,3.2,14.1,11,16.9c7.3,2.6,13.3-0.6,18.3-5.3c10.7-10.3,18.1-22.6,21.9-37.2
				c2-7.9,4.9-15.9,8.9-23.1C326.6,232.1,342.2,226.4,364.1,234.1z M325,298.7c0.2,3.9,0.2,6.5,0.5,9c0.1,1.4,0.5,2.7,0.9,4
				c2.3,7.4,7.4,9.1,11.8,2.9c4.9-6.9,9.2-14.8,11.6-22.8c4.6-15,7.7-30.6,11.4-45.9c1.8-7.3-2-11.4-9-8.6c-4.6,1.8-9.1,5.8-11.7,10
				C330.4,263.3,326.3,281.3,325,298.7z M255.4,291.5c17.7-9.8,29.8-23.4,31.8-44c0.4-4.2-0.4-8.1-4.8-9.8
				c-4.3-1.6-7.9,0.5-10.3,3.8C261.2,256.3,256.6,273.3,255.4,291.5z M416,292.6c14.7-8.1,24.8-18.6,30-33.3
				c1.5-4.4,2.4-9.2,2.3-13.8c-0.1-2.6-2.2-6.4-4.4-7.4s-6.3,0-8.5,1.6c-2.9,2.1-5.5,5.4-6.8,8.7c-4.3,11.3-8.2,22.9-11.9,34.4
				C416,285.5,416.3,288.6,416,292.6z"/>
			<path class="st0" d="M214.4,221.2c-3.1-0.3-5.9-0.5-8.8-0.8c-0.1-0.7-0.1-1.5-0.2-2.2c3.6-0.6,7.2-1.2,11.1-1.8
				c5.5-14.9,11.6-29.8,22.1-42.5c5.4-6.5,11.5-12,20.1-13.8c14.8-3.2,27.8,10.1,24,24.8c-3,11.7-11.3,18.7-21.8,23.4
				c-4.4,1.9-7.7-0.3-8.4-5.3c-1.1-7.1,0.5-13.6,4.7-19.9c2.1,1.1,3.9,2.2,5.8,3c4.7,1.9,8.9,1.6,11.9-3c3.4-5.1,2.7-10.3-1.8-14.4
				c-4.8-4.3-9-5-13.2-1.5c-2.1,1.7-4.3,3.8-5.4,6.2c-6.1,14-11.9,28.1-18.4,43.7c7.2,0,12.1,0,17.1,0c0.1,0.8,0.2,1.5,0.3,2.3
				c-3.3,0.5-6.7,1.7-10,1.4c-5.3-0.4-7.6,1.6-8.8,6.7c-7.8,32.2-8.4,33-16.7,65c-4.6,17.7-11.5,34.4-24.4,48
				c-6.8,7.2-14.7,12.4-24.7,14.2c-17.4,3.2-29.3-9.6-24.3-26.5c3.2-10.8,11.1-17.5,20.9-22.1c4.4-2.1,7.8,0,8.7,4.8
				c1.4,7.3-0.3,14-4.7,20.3c-1.5-0.8-2.9-1.5-4.2-2.2c-4.3-2.2-8.5-3.3-12.4,0.9c-3.8,4.1-4.3,10.2-1,14.7s8.2,6.8,12.9,4.1
				c4.9-2.8,9.7-6.9,13-11.5c9.3-12.8,14.1-27.7,18-42.8c8.7-34,10-36.7,18.6-70.7C214.5,223,214.4,222.2,214.4,221.2z"/>
		</g>
	</g>
	<g>
		<g>
			<path class="st0" d="M165.2,595.1c-21,8.2-21.7,8.1-42.9,16c-11.7,4.4-23.7,6.9-36.3,5c-6.7-1-12.6-3.4-17.5-8.3
				c-8.5-8.5-6-20.1,5.3-23.9c7.3-2.4,14.1-0.6,20.5,3.1c2.9,1.7,3.1,4.3,0.7,6.8c-3.5,3.6-8,5.3-13.2,5.3c-0.2-1.2-0.3-2.2-0.4-3.2
				c-0.4-3.3-1.5-6.1-5.3-6.6s-7.4,1.6-8.6,5.2c-1.2,3.6-0.6,7.2,2.7,8.8c3.5,1.7,7.6,2.7,11.5,2.8c10.8,0.2,21-2.9,31-6.6
				c22.4-8.3,24.4-8.7,46.7-17.1l4.9-1.6c10.5-2.8,21.2-5.1,32.4-4.2c5.7,0.5,11.2,1.8,15.6,5.8c7.6,7,5.2,19.5-4.5,23.1
				c-7.7,2.9-14.9,1-21.5-3.1c-2.8-1.7-2.8-4.4-0.3-6.8c3.6-3.3,7.8-5,12.9-5.1c0.2,1.6,0.3,3,0.6,4.4c0.7,3.4,2.6,5.6,6.3,5.5
				c4.2-0.1,6.8-2.5,7.3-6.6c0.6-4.3-0.7-7-4.3-8c-1.8-0.5-3.8-1-5.6-0.6c-10.2,2-20.4,4.3-31.6,6.7L165.2,595.1z"/>
		</g>
	</g>
</g>
<g id="Layer_2">
	<g class="st2">
		<path class="st3" d="M-78.4,516.9c0-1.4,0.3-2.8,0.9-4s1.3-2.3,2.2-3.2c0.9-0.9,1.9-1.8,3-2.6l3.3-2.5c1.1-0.8,2.1-1.6,3-2.5
			c0.9-0.8,1.7-1.8,2.2-2.9c0.6-1.1,0.9-2.3,0.9-3.5c0-1.9-0.6-3.5-1.8-4.7c-1.2-1.2-2.9-1.9-4.9-1.9c-0.9,0-1.7,0.2-2.5,0.5
			s-1.5,0.7-2,1.1s-1,0.9-1.4,1.3s-0.7,0.8-0.9,1.1l-0.3,0.4l-1.3-1l0.3-0.6c0.1-0.2,0.5-0.7,1-1.3s1.1-1.1,1.6-1.6
			c0.6-0.5,1.4-0.9,2.4-1.3s2-0.6,3.1-0.6c2.7,0,4.8,0.8,6.3,2.5c1.5,1.7,2.3,3.6,2.3,6c0,1.6-0.4,3.2-1.1,4.6
			c-0.8,1.4-1.7,2.6-2.9,3.5l-3.7,2.9l-3.7,2.8c-1.1,0.9-2.1,2-2.9,3.2c-0.8,1.3-1.1,2.6-1.1,4h15.9v1.8h-17.7
			C-78.3,517.9-78.4,517.4-78.4,516.9z"/>
		<path class="st3" d="M-41.3,492.3l1.5-2.9v-0.1c-0.6,0.1-1.3,0.1-2.3,0.1h-14.1v-1.8h18.4v1.3l-13.8,29.5h-1.9L-41.3,492.3z"/>
		<path class="st3" d="M-20.8,487.7h9.1c4.4,0,7.9,1.4,10.5,4.1s4,6.5,4,11.3s-1.3,8.6-3.9,11.3c-2.6,2.7-6.2,4.1-10.6,4.1h-9.1
			C-20.8,518.5-20.8,487.7-20.8,487.7z M-11.9,516.8c3.9,0,7.1-1.2,9.4-3.6c2.3-2.4,3.5-5.7,3.5-10.1c0-4.3-1.2-7.7-3.5-10.1
			s-5.5-3.6-9.4-3.6H-19v27.4H-11.9z"/>
		<path class="st3" d="M10,487.7h16v1.8H11.8v12.6h11.6v1.8H11.8v12.9h14.9v1.8H10V487.7z"/>
		<path class="st3" d="M45.3,487.7H60v1.8H47.1v12.9h11.1v1.8H47.1v14.4h-1.8C45.3,518.6,45.3,487.7,45.3,487.7z"/>
		<path class="st3" d="M66.4,487.7h15.9v1.8H68.2v12.6h11.6v1.8H68.2v12.9h14.9v1.8H66.4L66.4,487.7L66.4,487.7z"/>
		<path class="st3" d="M90.1,487.7h9.8c2.2,0,3.9,0.7,5.3,2.1c1.4,1.4,2.1,3.3,2.1,5.6c0,3.2-1.3,5.4-3.8,6.7v0.1
			c1.5,0.4,2.7,1.4,3.6,2.8c0.9,1.4,1.4,3.1,1.4,5c0,2.6-0.8,4.6-2.3,6.2c-1.5,1.6-3.5,2.3-5.8,2.3H90.2v-30.8H90.1z M99.8,501.4
			c1.6,0,3-0.6,4-1.7s1.5-2.6,1.5-4.4s-0.5-3.3-1.5-4.3c-1-1.1-2.4-1.6-4.1-1.6h-7.9v12H99.8z M100.1,516.8c2,0,3.5-0.6,4.7-1.8
			c1.2-1.2,1.7-2.8,1.7-4.9c0-2.1-0.6-3.7-1.8-5c-1.2-1.2-2.8-1.9-4.6-1.9h-8.2v13.6H100.1z"/>
		<path class="st3" d="M115.8,487.7h8.5c2.3,0,4.1,0.3,5.2,0.9c1.2,0.6,2.2,1.6,3,2.9c0.7,1.3,1.1,2.8,1.1,4.5c0,2.2-0.5,4-1.6,5.6
			c-1.1,1.5-2.5,2.5-4.2,2.9v0.1c0.2,0.2,0.4,0.6,0.7,1.1l6.5,12.8h-2.1l-6.9-13.6h-8.4v13.6h-1.8V487.7z M125.5,503.1
			c1.9,0,3.4-0.7,4.5-2s1.7-3,1.7-5.1c0-1.3-0.3-2.6-0.9-3.6c-0.6-1.1-1.4-1.8-2.5-2.3c-0.9-0.4-2.2-0.6-4.1-0.6h-6.7v13.6H125.5z"
			/>
		<path class="st3" d="M141.7,487.7h15.9v1.8h-14.1v12.6H155v1.8h-11.6v12.9h14.9v1.8h-16.7v-30.9H141.7z"/>
		<path class="st3" d="M165.4,487.7h8.5c2.3,0,4.1,0.3,5.2,0.9c1.2,0.6,2.2,1.6,3,2.9c0.7,1.3,1.1,2.8,1.1,4.5c0,2.2-0.5,4-1.6,5.6
			c-1.1,1.5-2.5,2.5-4.2,2.9v0.1c0.2,0.2,0.4,0.6,0.7,1.1l6.5,12.8h-2.1l-6.9-13.6h-8.4v13.6h-1.8V487.7z M175.1,503.1
			c1.9,0,3.4-0.7,4.5-2s1.7-3,1.7-5.1c0-1.3-0.3-2.6-0.9-3.6c-0.6-1.1-1.4-1.8-2.5-2.3c-0.9-0.4-2.2-0.6-4.1-0.6h-6.7v13.6H175.1z"
			/>
		<path class="st3" d="M193.5,491.7c2.9-3,6.3-4.6,10.4-4.6s7.5,1.5,10.4,4.6s4.3,6.8,4.3,11.2c0,4.5-1.4,8.3-4.3,11.5
			c-2.9,3.1-6.3,4.7-10.4,4.7s-7.5-1.6-10.4-4.7c-2.9-3.1-4.3-6.9-4.3-11.5C189.2,498.5,190.6,494.8,193.5,491.7z M194.8,513.1
			c2.5,2.8,5.5,4.2,9.1,4.2s6.6-1.4,9.1-4.2c2.5-2.8,3.7-6.2,3.7-10.2c0-3.9-1.2-7.2-3.7-9.9c-2.5-2.7-5.5-4-9.1-4s-6.6,1.3-9.1,4
			s-3.7,6-3.7,9.9C191,506.9,192.3,510.3,194.8,513.1z"/>
		<path class="st3" d="M234.2,505.2h11.5v1.8h-11.5V505.2z"/>
		<path class="st3" d="M261.5,516.9c0-1.4,0.3-2.8,0.9-4s1.3-2.3,2.2-3.2c0.9-0.9,1.9-1.8,3-2.6l3.3-2.5c1.1-0.8,2.1-1.6,3-2.5
			c0.9-0.8,1.7-1.8,2.2-2.9s0.9-2.3,0.9-3.5c0-1.9-0.6-3.5-1.8-4.7c-1.2-1.2-2.9-1.9-4.9-1.9c-0.9,0-1.7,0.2-2.5,0.5s-1.5,0.7-2,1.1
			s-1,0.9-1.4,1.3s-0.7,0.8-0.9,1.1l-0.3,0.4l-1.3-1l0.3-0.6c0.1-0.2,0.5-0.7,1-1.3s1.1-1.1,1.6-1.6c0.6-0.5,1.4-0.9,2.4-1.3
			s2-0.6,3.1-0.6c2.7,0,4.8,0.8,6.3,2.5c1.5,1.6,2.3,3.6,2.3,6c0,1.6-0.4,3.2-1.1,4.6c-0.8,1.4-1.7,2.6-2.9,3.5l-3.7,2.9l-3.7,2.8
			c-1.2,0.9-2.1,2-2.9,3.2c-0.8,1.3-1.1,2.6-1.1,4h15.9v1.8h-17.7C261.5,517.9,261.5,517.4,261.5,516.9z"/>
		<path class="st3" d="M285.1,503.1c0-10.6,3.3-15.9,9.8-15.9s9.8,5.3,9.8,15.9s-3.3,15.9-9.8,15.9
			C288.4,519.1,285.1,513.7,285.1,503.1z M298.8,516.2c1.1-0.7,1.9-1.7,2.5-3s1-2.8,1.2-4.4s0.4-3.5,0.4-5.6
			c0-9.4-2.6-14.1-7.9-14.1s-7.9,4.7-7.9,14.1c0,2.1,0.1,4,0.4,5.6c0.2,1.6,0.7,3.1,1.2,4.4c0.6,1.3,1.4,2.3,2.5,3s2.3,1.1,3.8,1.1
			S297.7,516.9,298.8,516.2z"/>
		<path class="st3" d="M312.3,487.7h1.8v14.5h18.5v-14.5h1.8v30.8h-1.8v-14.6h-18.5v14.6h-1.8V487.7z"/>
		<path class="st3" d="M342.4,513.8l0.4,0.4c0.2,0.2,0.5,0.4,1,0.8c0.5,0.4,1,0.7,1.6,1s1.3,0.6,2.2,0.8c0.9,0.2,1.8,0.4,2.7,0.4
			c1.9,0,3.4-0.6,4.6-1.7c1.2-1.1,1.8-2.6,1.8-4.4c0-1.2-0.3-2.2-0.8-3.1s-1.3-1.6-2.1-2.2s-1.9-1.1-2.9-1.6l-3.2-1.5
			c-1.1-0.5-2-1.1-2.9-1.7s-1.6-1.4-2.1-2.4s-0.8-2.1-0.8-3.4c0-2.1,0.8-4,2.5-5.6c1.6-1.6,3.7-2.4,6.3-2.4c0.9,0,1.7,0.1,2.6,0.3
			c0.8,0.2,1.5,0.4,2.1,0.7c0.6,0.3,1,0.6,1.5,0.9c0.4,0.3,0.7,0.5,0.9,0.7l0.3,0.3l-1,1.6c-0.2-0.2-0.5-0.5-0.8-0.7
			s-1.1-0.7-2.2-1.2s-2.2-0.7-3.4-0.7c-2.1,0-3.7,0.6-5,1.8c-1.3,1.2-1.9,2.6-1.9,4.2c0,1.1,0.3,2,0.8,2.9c0.5,0.8,1.3,1.5,2.1,2
			s1.9,1,2.9,1.5s2.1,1,3.2,1.5s2,1.1,2.9,1.8c0.9,0.6,1.6,1.5,2.1,2.6s0.8,2.3,0.8,3.7c0,2.3-0.8,4.2-2.3,5.7s-3.6,2.3-6.1,2.3
			c-1.1,0-2.1-0.1-3.1-0.4s-1.8-0.6-2.5-1c-0.7-0.4-1.3-0.8-1.8-1.1c-0.5-0.3-0.9-0.7-1.2-0.9l-0.3-0.4L342.4,513.8z"/>
	</g>
	<g class="st2">
		<path class="st3" d="M-3.6,427.7h2.3v2.5h-2.3V427.7z M-3.3,434.8h1.7v21.5h-1.7V434.8z"/>
		<path class="st3" d="M6.8,419.5h1.5L23.7,442l2.2,3.6H26c-0.1-1.4-0.2-2.7-0.2-3.6v-22.5h1.7v28.7H26l-15.4-22.5l-2.2-3.6H8.3
			c0.1,1.4,0.2,2.7,0.2,3.6v22.5H6.8V419.5z"/>
		<path class="st3" d="M38,423.2c2.7-2.8,5.9-4.2,9.7-4.2c3.8,0,7,1.4,9.7,4.2c2.7,2.8,4,6.3,4,10.4c0,4.2-1.3,7.8-4,10.7
			c-2.7,2.9-5.9,4.4-9.7,4.4c-3.8,0-7-1.5-9.7-4.4s-4-6.5-4-10.7C34,429.5,35.3,426,38,423.2z M39.2,443.1c2.3,2.6,5.1,3.9,8.5,3.9
			c3.3,0,6.2-1.3,8.5-3.9s3.5-5.7,3.5-9.5c0-3.7-1.2-6.7-3.5-9.2s-5.1-3.7-8.5-3.7c-3.3,0-6.2,1.2-8.5,3.7s-3.5,5.6-3.5,9.2
			C35.7,437.3,36.9,440.5,39.2,443.1z"/>
		<path class="st3" d="M66.9,443.7l0.3,0.3c0.1,0.2,0.5,0.4,0.9,0.8c0.5,0.4,1,0.7,1.5,1s1.2,0.5,2,0.8s1.7,0.3,2.5,0.3
			c1.7,0,3.2-0.5,4.3-1.6s1.7-2.4,1.7-4.1c0-1.1-0.3-2.1-0.8-2.9s-1.2-1.5-2-2s-1.7-1-2.7-1.5l-2.9-1.4c-1-0.5-1.9-1-2.7-1.6
			s-1.5-1.3-2-2.3s-0.8-2-0.8-3.2c0-2,0.8-3.7,2.3-5.2s3.5-2.2,5.8-2.2c0.8,0,1.6,0.1,2.4,0.3c0.8,0.2,1.4,0.4,1.9,0.7
			c0.5,0.3,1,0.5,1.4,0.8s0.7,0.5,0.9,0.7l0.3,0.3l-0.9,1.5c-0.2-0.2-0.4-0.4-0.8-0.7c-0.3-0.3-1-0.6-2-1.1s-2.1-0.7-3.1-0.7
			c-1.9,0-3.5,0.6-4.6,1.7c-1.2,1.1-1.8,2.5-1.8,3.9c0,1,0.3,1.9,0.8,2.7c0.5,0.8,1.2,1.4,2,1.9s1.7,1,2.7,1.4s2,0.9,2.9,1.4
			s1.9,1,2.7,1.6s1.5,1.4,2,2.4s0.8,2.1,0.8,3.4c0,2.1-0.7,3.9-2.1,5.3s-3.3,2.1-5.7,2.1c-1,0-2-0.1-2.9-0.4s-1.7-0.5-2.3-0.9
			s-1.2-0.7-1.7-1s-0.9-0.6-1.1-0.9l-0.3-0.4L66.9,443.7z"/>
		<path class="st3" d="M101.1,423.2c2.6-2.8,5.8-4.2,9.6-4.2c1.2,0,2.3,0.1,3.4,0.4s2,0.5,2.7,0.9s1.4,0.7,1.9,1.1
			c0.6,0.4,0.9,0.7,1.2,0.9l0.4,0.4l-1,1.3c-0.1-0.1-0.2-0.2-0.4-0.3c-0.2-0.2-0.5-0.4-1.1-0.8s-1.2-0.7-1.8-1s-1.4-0.5-2.4-0.8
			c-1-0.2-2-0.3-3-0.3c-3.3,0-6.1,1.2-8.4,3.7c-2.2,2.5-3.4,5.6-3.4,9.2c0,3.7,1.1,6.9,3.4,9.5s5.1,3.9,8.5,3.9
			c1.1,0,2.1-0.1,3.2-0.4c1-0.3,1.9-0.6,2.6-1c0.7-0.4,1.3-0.7,1.8-1.1s0.9-0.7,1.2-1l0.4-0.4l1,1.2l-0.4,0.5
			c-0.2,0.2-0.6,0.6-1.3,1c-0.6,0.5-1.3,0.9-2.1,1.3c-0.7,0.4-1.7,0.7-2.8,1c-1.2,0.3-2.4,0.5-3.6,0.5c-3.9,0-7.1-1.5-9.7-4.4
			c-2.6-2.9-3.9-6.5-3.9-10.7C97.2,429.4,98.5,426,101.1,423.2z"/>
		<path class="st3" d="M140.7,438.2h-11.5l-3.5,9.9H124l10.1-28.7h1.8l10.1,28.7h-1.8L140.7,438.2z M134.9,421.5
			c-0.4,1.5-0.7,2.6-1,3.4l-4.1,11.6h10.3l-4.1-11.6L134.9,421.5L134.9,421.5z"/>
		<path class="st3" d="M150,443.7l0.3,0.3c0.1,0.2,0.5,0.4,0.9,0.8c0.5,0.4,1,0.7,1.5,1s1.2,0.5,2,0.8s1.7,0.3,2.5,0.3
			c1.7,0,3.2-0.5,4.3-1.6s1.7-2.4,1.7-4.1c0-1.1-0.3-2.1-0.8-2.9s-1.2-1.5-2-2s-1.7-1-2.7-1.5l-2.9-1.4c-1-0.5-1.9-1-2.7-1.6
			s-1.5-1.3-2-2.3s-0.8-2-0.8-3.2c0-2,0.8-3.7,2.3-5.2s3.5-2.2,5.8-2.2c0.8,0,1.6,0.1,2.4,0.3c0.8,0.2,1.4,0.4,1.9,0.7
			c0.5,0.3,1,0.5,1.4,0.8s0.7,0.5,0.9,0.7l0.3,0.3l-0.9,1.5c-0.2-0.2-0.4-0.4-0.8-0.7c-0.3-0.3-1-0.6-2-1.1s-2.1-0.7-3.1-0.7
			c-1.9,0-3.5,0.6-4.6,1.7c-1.2,1.1-1.8,2.5-1.8,3.9c0,1,0.3,1.9,0.8,2.7c0.5,0.8,1.2,1.4,2,1.9s1.7,1,2.7,1.4s2,0.9,2.9,1.4
			s1.9,1,2.7,1.6s1.5,1.4,2,2.4s0.8,2.1,0.8,3.4c0,2.1-0.7,3.9-2.1,5.3s-3.3,2.1-5.7,2.1c-1,0-2-0.1-2.9-0.4s-1.7-0.5-2.3-0.9
			s-1.2-0.7-1.7-1s-0.9-0.6-1.1-0.9l-0.3-0.4L150,443.7z"/>
		<path class="st3" d="M184.7,438.2h-11.5l-3.5,9.9h-1.8l10.1-28.7h1.8l10.1,28.7h-1.8L184.7,438.2z M178.9,421.5
			c-0.4,1.5-0.7,2.6-1,3.4l-4.1,11.6h10.3l-4.1-11.6L178.9,421.5L178.9,421.5z"/>
		<path class="st3" d="M196.2,419.5h1.6l7.9,18l1.3,3.2h0.1c0.5-1.2,0.9-2.3,1.3-3.2l7.9-18h1.6l2.2,28.7h-1.7l-1.7-21.9l-0.1-3.8
			h-0.1c-0.5,1.6-1,2.9-1.4,3.8l-7.3,16.4h-1.7l-7.2-16.4l-1.4-3.9h-0.1c0,1.7,0,3-0.1,3.9l-1.7,21.9h-1.7L196.2,419.5z"/>
		<path class="st3" d="M229.8,423.2c2.7-2.8,5.9-4.2,9.7-4.2c3.8,0,7,1.4,9.7,4.2c2.7,2.8,4,6.3,4,10.4c0,4.2-1.3,7.8-4,10.7
			c-2.7,2.9-5.9,4.4-9.7,4.4c-3.8,0-7-1.5-9.7-4.4s-4-6.5-4-10.7C225.8,429.5,227.2,426,229.8,423.2z M231,443.1
			c2.3,2.6,5.1,3.9,8.5,3.9c3.3,0,6.2-1.3,8.5-3.9s3.5-5.7,3.5-9.5c0-3.7-1.2-6.7-3.5-9.2s-5.1-3.7-8.5-3.7c-3.3,0-6.2,1.2-8.5,3.7
			s-3.5,5.6-3.5,9.2C227.6,437.3,228.7,440.5,231,443.1z"/>
		<path class="st3" d="M258.8,443.7l0.3,0.3c0.1,0.2,0.5,0.4,0.9,0.8c0.5,0.4,1,0.7,1.5,1s1.2,0.5,2,0.8c0.8,0.2,1.7,0.3,2.5,0.3
			c1.7,0,3.2-0.5,4.3-1.6c1.1-1,1.7-2.4,1.7-4.1c0-1.1-0.3-2.1-0.8-2.9s-1.2-1.5-2-2s-1.7-1-2.7-1.5l-2.9-1.4c-1-0.5-1.9-1-2.7-1.6
			c-0.8-0.6-1.5-1.3-2-2.3s-0.8-2-0.8-3.2c0-2,0.8-3.7,2.3-5.2s3.5-2.2,5.8-2.2c0.8,0,1.6,0.1,2.4,0.3c0.8,0.2,1.4,0.4,1.9,0.7
			c0.5,0.3,1,0.5,1.4,0.8s0.7,0.5,0.9,0.7l0.3,0.3l-0.9,1.5c-0.2-0.2-0.4-0.4-0.8-0.7c-0.3-0.3-1-0.6-2-1.1s-2.1-0.7-3.1-0.7
			c-1.9,0-3.5,0.6-4.6,1.7c-1.2,1.1-1.8,2.5-1.8,3.9c0,1,0.3,1.9,0.8,2.7c0.5,0.8,1.2,1.4,2,1.9s1.7,1,2.7,1.4s2,0.9,2.9,1.4
			s1.9,1,2.7,1.6c0.8,0.6,1.5,1.4,2,2.4s0.8,2.1,0.8,3.4c0,2.1-0.7,3.9-2.1,5.3s-3.3,2.1-5.7,2.1c-1,0-2-0.1-2.9-0.4
			s-1.7-0.5-2.3-0.9c-0.6-0.4-1.2-0.7-1.7-1s-0.9-0.6-1.1-0.9l-0.3-0.4L258.8,443.7z"/>
		<path class="st3" d="M280.6,445.6h2.3v2.5h-2.3V445.6z M280.9,419.5h1.7V441h-1.7V419.5z"/>
	</g>
</g>
</svg>
